# xmcd CD database file
#
# Track frame offsets:
#	150
#	15328
#	29527
#	44675
#	58127
#	70795
#	84488
#	101215
#	113828
#	127333
#	137970
#	148918
#	159558
#	173728
#	186485
#	206603
#	220773
#
# Disc length: 3152 seconds
#
# Revision: 0
# Processed by: cddbd v1.4PL0 Copyright (c) Steve Scherf et al.
# Submitted via: CDex 1.50Beta7
#
DISCID=0a0c4e11
DTITLE=Bobby Atkins and Margie Lynn - Crimes Of The Heart
DYEAR=1992
DGENRE=Country
TTITLE0=Part Time Angel
TTITLE1=Two Timin' Loving
TTITLE2=Your Eyes Never Lie
TTITLE3=Crimes Of The Heart
TTITLE4=Forever And A Day
TTITLE5=Fire In The Bottle
TTITLE6=The Best Mistake
TTITLE7=Listen To My Heartbeat
TTITLE8=When Our Eyes Come Together
TTITLE9=If Our Hearts Could Get Together
TTITLE10=Picture Perfect Lover
TTITLE11=Even If It'S Wrong
TTITLE12=Used Memories
TTITLE13=I'm Hoping Tomorrow I'll Get Over Yesterday
TTITLE14=The Sun Is Shining On My Mountain
TTITLE15=The Ghost Of Simon Dill
TTITLE16=There's Not Enough Words
EXTD=YEAR: 1992
EXTT0=
EXTT1=
EXTT2=
EXTT3=
EXTT4=
EXTT5=
EXTT6=
EXTT7=
EXTT8=
EXTT9=
EXTT10=
EXTT11=
EXTT12=
EXTT13=
EXTT14=
EXTT15=
EXTT16=
PLAYORDER=
